<?xml version="1.0" standalone="no"?>
<!DOCTYPE svg PUBLIC "-//W3C//DTD SVG 20010904//EN"
 "http://www.w3.org/TR/2001/REC-SVG-20010904/DTD/svg10.dtd">
<svg version="1.0" xmlns="http://www.w3.org/2000/svg"
 width="512.000000pt" height="512.000000pt" viewBox="0 0 512.000000 512.000000"
 preserveAspectRatio="xMidYMid meet">
<metadata>
Created by potrace 1.11, written by Peter Selinger 2001-2013
</metadata>
<g transform="translate(0.000000,512.000000) scale(0.100000,-0.100000)"
fill="#000000" stroke="none">
<path d="M2320 5114 c-91 -9 -296 -45 -391 -69 -905 -230 -1624 -949 -1854
-1854 -57 -228 -69 -335 -69 -631 0 -296 12 -403 69 -631 230 -905 949 -1624
1854 -1854 228 -57 335 -69 631 -69 296 0 403 12 631 69 905 230 1624 949
1854 1854 57 228 69 335 69 631 0 296 -12 403 -69 631 -230 905 -949 1624
-1854 1854 -205 52 -330 67 -586 70 -132 1 -260 1 -285 -1z m973 -963 c225
-82 411 -152 414 -155 3 -3 -83 -247 -191 -542 -108 -296 -193 -540 -189 -544
4 -4 247 -94 538 -200 292 -106 532 -194 534 -196 4 -3 -329 -916 -338 -926
-4 -4 -278 92 -610 213 -331 122 -605 218 -608 215 -3 -3 76 -182 176 -397
100 -215 180 -393 179 -395 -6 -5 -891 -414 -897 -414 -4 0 -76 150 -160 333
-84 182 -155 334 -157 336 -2 2 -30 -18 -63 -45 -133 -108 -259 -162 -424
-184 -176 -24 -372 25 -528 130 -298 203 -418 593 -287 933 99 257 338 447
612 488 l73 11 -157 336 c-87 186 -154 340 -151 344 5 6 887 418 895 418 1 0
85 -178 186 -395 101 -218 187 -392 191 -388 4 4 103 269 220 588 116 319 215
590 220 602 l8 23 53 -20 c29 -10 237 -87 461 -169z"/>
<path d="M1265 2646 c-142 -40 -239 -99 -328 -196 -105 -116 -160 -266 -159
-430 1 -273 171 -504 437 -596 69 -24 96 -28 195 -28 99 0 126 4 195 28 163
56 289 161 363 303 53 103 74 187 74 298 1 272 -159 502 -416 598 -69 26 -98
30 -196 33 -78 3 -131 -1 -165 -10z m204 -73 c5 -21 13 -64 16 -95 l7 -58 -80
0 c-44 0 -87 -2 -95 -5 -10 -4 -19 9 -32 42 -10 26 -27 63 -38 81 -11 20 -16
37 -11 42 12 12 104 27 171 29 l52 1 10 -37z"/>
</g>
</svg>
